<svg width="20" height="20" viewBox="0 0 24 24" fill="none" xmlns="http://www.w3.org/2000/svg">
    <path d="M12 2C10.0222 2 8.08883 2.58649 6.4443 3.6853C4.79981 4.78412 3.51808 6.34591 2.76121 8.17317C2.00433 10.0004 1.8063 12.0111 2.19215 13.9509C2.578 15.8908 3.53041 17.6726 4.92893 19.0711C6.32746 20.4696 8.10933 21.422 10.0491 21.8079C11.9889 22.1937 13.9996 21.9957 15.8268 21.2389C17.6541 20.4819 19.2159 19.2002 20.3147 17.5557C21.4135 15.9113 22 13.9778 22 12C22 9.34784 20.9464 6.8043 19.0711 4.92894C17.1957 3.05357 14.6522 2 12 2ZM3.66668 12C3.66817 11.2938 3.7606 10.5908 3.94168 9.90834L4.30001 11.7083C4.33178 11.8488 4.40988 11.9745 4.52173 12.0652C4.63358 12.1558 4.77268 12.2063 4.91668 12.2083H5.04168C5.09374 12.1911 5.14398 12.1688 5.19168 12.1417C5.14911 12.2302 5.12636 12.3268 5.12501 12.425V14.5C5.12515 14.6657 5.19109 14.8246 5.30834 14.9417L5.99167 15.625L6.29167 18.0583C5.46449 17.2806 4.80497 16.342 4.35357 15.3003C3.90217 14.2584 3.66843 13.1354 3.66668 12ZM12 20.3334C10.4166 20.3336 8.86642 19.8795 7.53334 19.025L11.1667 15.3333C11.2839 15.2163 11.3498 15.0573 11.35 14.8917V13.225C11.3491 13.1231 11.3237 13.0229 11.2758 12.933C11.2279 12.8431 11.159 12.766 11.075 12.7083L9.875 11.875L9.04167 11.0833C8.92458 10.9661 8.76575 10.9002 8.6 10.9H6.16667C6.05132 10.9007 5.93834 10.9329 5.83994 10.9931C5.74154 11.0533 5.66146 11.1393 5.60834 11.2417L5.53334 11.4L5.19168 9.73334L5.94167 9.23334H7.08334L7.73334 10.2083C7.78994 10.2934 7.86675 10.363 7.957 10.411C8.04717 10.459 8.14783 10.4839 8.25 10.4833H8.35833C8.478 10.4626 8.589 10.4073 8.67783 10.3245C8.76667 10.2416 8.82933 10.1347 8.85833 10.0167L9.175 8.73334L10.8417 8.40001C10.9622 8.37392 11.0727 8.31376 11.1598 8.22651C11.2471 8.13934 11.3073 8.02884 11.3333 7.90834L11.75 5.825C11.7766 5.68091 11.7531 5.53206 11.6833 5.4032C11.6136 5.27434 11.5018 5.17323 11.3667 5.11667L9.03333 4.225C9.97892 3.85615 10.985 3.66681 12 3.66667C13.7021 3.66899 15.3627 4.19246 16.7583 5.16667L15.05 6C14.9476 6.05313 14.8617 6.13321 14.8014 6.2316C14.7412 6.33 14.709 6.44298 14.7083 6.55834V7.18334H13.6667C13.5016 7.1855 13.3438 7.25204 13.2271 7.36878C13.1103 7.48553 13.0438 7.64325 13.0417 7.80834V8.80001L12 9.89167C11.9274 9.96509 11.8736 10.0549 11.8431 10.1536C11.8127 10.2523 11.8064 10.3568 11.825 10.4583L12.2417 12.5417C12.2707 12.6835 12.3479 12.811 12.4604 12.9022C12.5729 12.9933 12.7136 13.0427 12.8583 13.0417H14.8083L15.1667 15.9C15.3417 16.2594 15.5989 16.5727 15.9174 16.8144C16.2358 17.0562 16.6067 17.2197 17 17.2917C17.072 17.2997 17.1447 17.2997 17.2167 17.2917C17.3667 17.3008 17.5163 17.2693 17.6497 17.2003C17.7832 17.1313 17.8957 17.0276 17.975 16.9C17.9975 16.8686 18.017 16.8351 18.0333 16.8L18.8167 14.825L19.4667 14.1417C19.5462 14.0593 19.601 13.9563 19.6246 13.8442C19.6482 13.7322 19.6397 13.6158 19.6 13.5083L19.475 13.1333L19.8167 12.9583C19.9452 12.8906 20.0478 12.7822 20.1083 12.65L20.3667 12.05C20.3534 14.2573 19.4651 16.3691 17.8965 17.9221C16.3279 19.475 14.2072 20.3422 12 20.3334Z" fill="#0175DA"/>
</svg>