<svg xmlns="http://www.w3.org/2000/svg" width="30" height="30"><path d="M15 13.5a1.5 1.5 0 11-1.5 1.5 1.5 1.5 0 011.5-1.5m0-2a3.5 3.5 0 103.5 3.5 3.5 3.5 0 00-3.5-3.5z"/><path d="M15.63 6.75l.18 1.63.12 1.07 1 .38a5.29 5.29 0 011.58.91l.83.68 1-.43 1.5-.66.63 1.09-1.32 1-.87.64.18 1.06a5.95 5.95 0 010 1.82L20.27 17l.87.64 1.32 1-.63 1.09-1.5-.73-1-.43-.83.68a5.29 5.29 0 01-1.58.91l-1 .38-.12 1.07-.18 1.63h-1.25l-.18-1.63-.12-1.07-1-.38a5.29 5.29 0 01-1.58-.91l-.83-.68-1 .43-1.5.66-.63-1.09 1.32-1 .88-.57-.18-1.06a6 6 0 010-1.82L9.73 13l-.87-.64-1.32-1 .63-1.09 1.5.66 1 .43.83-.68a5.29 5.29 0 011.58-.91l1-.38.12-1.07.18-1.63h1.26M16.19 5h-2.38a1 1 0 00-1.1.83l-.26 2.36a7.19 7.19 0 00-2.08 1.2l-2.17-1a.87.87 0 00-.32-.06 1.11 1.11 0 00-.94.6L5.74 11a1.35 1.35 0 00-.17.63.88.88 0 00.34.73l1.92 1.44a7.25 7.25 0 000 2.4l-1.92 1.41a.88.88 0 00-.34.73 1.35 1.35 0 00.17.63L6.94 21a1.11 1.11 0 00.94.6.87.87 0 00.32-.06l2.17-1a7.19 7.19 0 002.08 1.2l.26 2.36a1 1 0 001.1.83h2.38a1 1 0 001.1-.83l.26-2.36a7.19 7.19 0 002.08-1.2l2.17 1a.87.87 0 00.32.06 1.11 1.11 0 00.94-.6l1.2-2a1.35 1.35 0 00.17-.63.88.88 0 00-.34-.73l-1.92-1.44a7.25 7.25 0 000-2.4l1.92-1.41a.88.88 0 00.34-.73 1.35 1.35 0 00-.17-.63L23.06 9a1.11 1.11 0 00-.94-.6.87.87 0 00-.32.06l-2.17 1a7.19 7.19 0 00-2.08-1.2l-.26-2.36a1 1 0 00-1.1-.9z"/></svg>