<svg xmlns="http://www.w3.org/2000/svg" viewBox="0 0 512 512"><rect width="512" height="512" fill="#f7f8fa"/><path d="M491.65,162.93C478.29,152.52,438,181.62,400,228.55V224a144,144,0,0,0-288,0v3.76c-37.82-46.46-77.73-75.19-91-64.83-13.94,10.87,6.7,60.64,46.09,111.16,15,19.27,30.61,35.86,44.92,48.42V512H400V323.07c14.48-12.62,30.3-29.42,45.55-49C485,223.57,505.58,173.8,491.65,162.93Z" fill="#2e4258"/><rect x="236.2" y="220.2" width="39.6" height="39.6" transform="translate(244.69 -110.72) rotate(45)" fill="#ffd761"/><circle cx="208" cy="200" r="24" fill="#fff"/><circle cx="304" cy="200" r="24" fill="#fff"/><path d="M376,408c-16-104-72-120-120-120S152,304,136,408c-8,56,0,104,0,104H376S384,464,376,408Z" fill="#fff"/></svg>