<svg xmlns="http://www.w3.org/2000/svg" viewBox="0 0 512 512"><rect width="512" height="512" fill="#fff"/><path d="M349.86,120.54c23.06,0,44.37,7.39,61.6,21.36l0,0,0,0a97.22,97.22,0,0,1,25.83,31.61,96.19,96.19,0,0,1,4,79.19,96.9,96.9,0,0,1-22.56,34L255.93,446.27,93.23,286.7a96.72,96.72,0,0,1-22.54-33.95,96.13,96.13,0,0,1,4-79.19A97.09,97.09,0,0,1,100.47,142l0,0,0,0c17.26-14,38.57-21.36,61.63-21.36A110.54,110.54,0,0,1,238.86,152l5.93,5.82,11.21,11,11.21-11,5.92-5.81a110.53,110.53,0,0,1,76.73-31.43m0-16a126.36,126.36,0,0,0-87.93,36L256,146.36l-5.93-5.82a126.38,126.38,0,0,0-87.91-36c-25.5,0-50.83,8-71.7,24.92a113.91,113.91,0,0,0-30.06,36.8,112.16,112.16,0,0,0-4.6,92.35A113.51,113.51,0,0,0,82,298.14L247.8,460.71a11.68,11.68,0,0,0,16.25,0L430,298.14a113.57,113.57,0,0,0,26.26-39.53,112.21,112.21,0,0,0-4.61-92.35,113.91,113.91,0,0,0-30.06-36.8c-20.85-16.89-46.19-24.92-71.68-24.92Z" fill="#d0d5db"/><path d="M349.86,120.54c23.06,0,44.37,7.39,61.6,21.36l0,0,0,0a97.22,97.22,0,0,1,25.83,31.61,96.19,96.19,0,0,1,4,79.19,96.9,96.9,0,0,1-22.56,34L255.93,446.27,93.23,286.7a96.72,96.72,0,0,1-22.54-33.95,96.13,96.13,0,0,1,4-79.19A97.09,97.09,0,0,1,100.47,142l0,0,0,0c17.26-14,38.57-21.36,61.63-21.36A110.54,110.54,0,0,1,238.86,152l5.93,5.82,11.21,11,11.21-11,5.92-5.81a110.53,110.53,0,0,1,76.73-31.43" fill="#f1f2f4"/></svg>